<?xml version="1.0" encoding="UTF-8"?>
<svg id="Layer_2" data-name="Layer 2" xmlns="http://www.w3.org/2000/svg" viewBox="0 0 36.06 36.06">
  <defs>
    <style>
      .cls-1 {
        fill: none;
      }

      .cls-2 {
        fill: #e29857;
      }
    </style>
  </defs>
  <g id="Layer_1-2" data-name="Layer 1">
    <g>
      <path class="cls-2" d="M33.47,27.49h-16.01c.69-3.18-1.29-6.45-4.41-7.32-4.61-1.28-8.77,2.68-7.91,7.32h-2.39c-1.2,0-2.59-1.28-2.7-2.48V8.92c.25-2.12,1.91-3.79,4.04-4.04h20.88c1.09.1,2.03.61,2.83,1.33,1.51,2.46,4.71,4.7,4.91,7.73.22,3.27.04,7.2,0,10.53,0,.21-.13.4.03.51h2.36c.37,0,.84.62.9.99.08.54.08,3.58-.05,4.02-.25.87-1.52,1.09-2.11.41-.09-.1-.35-.58-.35-.67v-2.24ZM6.84,10.31c-.76.16-1.31.73-1.39,1.51-.07.61-.08,2.39.02,2.96.15.88.91,1.33,1.74,1.4,2.12.17,4.45-.13,6.6,0,.87-.05,1.59-.65,1.69-1.53.07-.62.07-2.28,0-2.9-.11-.83-.78-1.39-1.6-1.46-2.23-.2-4.79.14-7.05.02ZM19.65,15.99v8.87l.12.12h6.52l.12-.12v-8.87c0-.52-.63-1.22-1.12-1.4-.63-.23-3.03-.19-3.79-.14-.9.06-1.71.58-1.84,1.53Z"/>
      <circle class="cls-2" cx="11.3" cy="26.28" r="4.9"/>
    </g>
    <rect class="cls-1" width="36.06" height="36.06"/>
  </g>
</svg>