<?xml version="1.0" encoding="UTF-8"?>
<svg id="Layer_2" data-name="Layer 2" xmlns="http://www.w3.org/2000/svg" viewBox="0 0 36.06 36.06">
  <defs>
    <style>
      .cls-1 {
        fill: #b382ba;
      }

      .cls-2 {
        fill: none;
      }
    </style>
  </defs>
  <g id="Layer_1-2" data-name="Layer 1">
    <g>
      <path class="cls-1" d="M35.97,30.46c-.26,1.3-1.23,2.32-2.56,2.52H2.8c-1.4-.12-2.52-1.24-2.68-2.63l.02-11.03c.51-1.04,1.08-.31,1.72-.03.1.04.68.25.74.25h12.43v2.35c0,.26.39.65.67.66,1.46-.1,3.12.15,4.55,0,.34-.03.8-.29.8-.67v-2.35h12.43c.05,0,.64-.2.74-.25.68-.3,1.15-.99,1.75.04v11.14Z"/>
      <path class="cls-1" d="M35.97,15.48c-.08,1.08-1.47,2.59-2.56,2.59h-12.36c.02-.55.07-1.23-.54-1.46-1.52.08-3.25-.16-4.75-.02-.79.07-.75.85-.73,1.47H2.66c-1.24,0-2.46-1.59-2.56-2.76-.09-1.08-.13-4.62.12-5.56.23-.85,1.39-2.12,2.3-2.12h8.02v-1.72c0-1.23,1.29-2.61,2.5-2.75,3.16.14,6.59-.25,9.72-.02,1.35.1,2.76,1.37,2.76,2.77v1.72h8.02c1.05,0,2.29,1.53,2.42,2.52.21,1.62-.15,3.66,0,5.32ZM22.52,6.09h-8.97v1.54h8.97v-1.54Z"/>
    </g>
    <rect class="cls-2" width="36.06" height="36.06"/>
  </g>
</svg>