<?xml version="1.0" encoding="UTF-8"?>
<svg id="Layer_2" data-name="Layer 2" xmlns="http://www.w3.org/2000/svg" viewBox="0 0 36.06 36.06">
  <defs>
    <style>
      .cls-1 {
        fill: none;
      }

      .cls-2 {
        fill: #6c77b5;
      }
    </style>
  </defs>
  <g id="Layer_1-2" data-name="Layer 1">
    <path class="cls-2" d="M19.17,0l1.84.23c7.69,1.26,13.86,7.62,14.87,15.37.06.42.04.89.15,1.29v2.25c-.11.41-.09.87-.15,1.29-1.03,7.76-7.17,14.1-14.87,15.37l-1.84.23c-.74-.03-1.51.04-2.25,0C7.88,35.52.48,27.96.05,18.91-.41,9.14,7.18.57,16.92,0h2.25ZM17.4,4.24c-4.83.24-9.32,3.08-11.55,7.37-.54,1.03-1.63,3.03.28,3.24,6.88-1.27,13.86-1.34,20.79-.48.88.11,2.23.47,3.04.48.46,0,1.01-.34,1.08-.82.09-.58-.32-1.42-.57-1.96-2.32-4.95-7.6-8.11-13.07-7.84ZM6.36,19.66c-2.16.19-1.92,1.14-1.34,2.85,1.26,3.73,4.95,7.71,8.86,8.66,1.48.36,1.67-.64,1.83-1.86.75-5.62-3.76-10.15-9.35-9.65ZM27.65,19.66c-3.57.32-6.69,3.3-7.34,6.79-.22,1.2-.24,3.02.23,4.17.38.95,1.24.69,1.99.44,3.96-1.31,7.35-4.79,8.61-8.76.45-1.41.7-2.27-1.06-2.57-.74-.12-1.67-.14-2.42-.07Z"/>
    <rect class="cls-1" width="36.06" height="36.06"/>
  </g>
</svg>