<?xml version="1.0" encoding="UTF-8"?>
<svg id="Layer_2" data-name="Layer 2" xmlns="http://www.w3.org/2000/svg" viewBox="0 0 36.06 36.06">
  <defs>
    <style>
      .cls-1 {
        fill: none;
      }

      .cls-2 {
        fill: #85ad64;
      }
    </style>
  </defs>
  <g id="Layer_1-2" data-name="Layer 1">
    <g>
      <path class="cls-2" d="M.03,18.03c.18-.41.58-.6.88-.91,5.14-4,9.96-8.63,15.11-12.58,1.47-1.13,2.54-1.12,4,0,1.76,1.35,3.38,2.97,5.17,4.29v-4.6s.21-.28.25-.31c.14-.1.38-.14.55-.15,1.01-.09,3.08-.1,4.08,0,.5.05.79.27.81.8v8.99c.04.1.23.25.32.33,1.32,1.27,3.08,2.35,4.39,3.62.48.47.58.71.17,1.3-.16.23-1.29,1.57-1.44,1.65-.34.19-.65.13-.94-.1l-15.34-12.79L2.58,20.41c-.29.2-.6.21-.9.01L.03,18.45v-.42Z"/>
      <path class="cls-2" d="M20.91,32.37v-8.58h-5.76v8.58H6.46s-.45-.15-.52-.18c-.46-.23-.74-.68-.78-1.19l.03-10.93,12.81-10.53,12.85,10.53.03,11.07c-.03.55-.77,1.24-1.29,1.24h-8.68Z"/>
    </g>
    <rect class="cls-1" width="36.06" height="36.06"/>
  </g>
</svg>