<?xml version="1.0" encoding="UTF-8"?>
<svg id="Layer_2" data-name="Layer 2" xmlns="http://www.w3.org/2000/svg" viewBox="0 0 36.06 36.06">
  <defs>
    <style>
      .cls-1 {
        fill: none;
      }

      .cls-2 {
        fill: #a67d4f;
      }
    </style>
  </defs>
  <g id="Layer_1-2" data-name="Layer 1">
    <path class="cls-2" d="M22.67,33.13h1.65V9.73h6.09c1.03,0,2.32,1.71,2.32,2.71v20.69h2.24s.41.14.46.17c1,.57.73,2.23-.46,2.35l-34.1-.06c-1-.37-1.13-1.74-.19-2.27.08-.05.39-.18.44-.18h2.24V8.51c0-.89.83-2.01,1.62-2.38L18.82.58c1.64-.67,3.85.87,3.85,2.59v29.96ZM8.72,10.93c-.68.74-.22,1.98.8,2.09,2.19.25,4.83-.18,7.06,0,1.51-.36,1.34-2.35-.23-2.51-2.13-.21-4.59.16-6.75,0-.29.03-.68.21-.88.42ZM9.37,16.42c-1.37.35-1.26,2.29.15,2.49,2.1.29,4.81-.2,6.97,0,1.44-.26,1.51-2.17.08-2.5h-7.2ZM9.3,22.31c-1.38.57-1.12,2.3.38,2.49,2.05.25,4.56-.16,6.66,0,1.55-.19,1.76-2,.32-2.5h-7.36ZM8.72,28.52c-.68.74-.22,1.98.8,2.09,2.19.25,4.83-.18,7.06,0,1.51-.36,1.34-2.35-.23-2.51-2.13-.21-4.59.16-6.75,0-.29.03-.68.21-.88.42Z"/>
    <rect class="cls-1" width="36.06" height="36.06"/>
  </g>
</svg>